<svg xmlns="http://www.w3.org/2000/svg" width="1024" height="1024" viewBox="0 0 1024 1024">
<g>
<path d="M 585.50 500.67 C573.45,503.78 554.54,504.73 546.38,502.65 C538.35,500.60 527.46,495.00 513.39,485.68 C493.83,472.73 487.36,469.84 466.00,464.53 C442.51,458.70 426.69,453.34 411.41,446.05 C396.75,439.07 389.25,434.09 380.72,425.68 C371.49,416.58 367.74,408.49 367.21,396.50 C366.74,386.00 368.57,379.83 374.79,370.90 C381.56,361.18 388.83,356.79 422.20,342.26 C482.66,315.93 487.75,314.01 502.50,312.05 C512.37,310.74 526.78,311.96 536.84,314.95 C540.78,316.13 563.47,325.41 587.25,335.59 C632.06,354.76 640.68,359.30 647.59,367.38 C661.96,384.17 661.31,405.87 645.91,423.37 C635.37,435.34 610.99,449.19 586.00,457.39 C566.69,463.73 566.67,463.73 557.38,460.02 C548.46,456.45 529.71,446.07 524.86,442.02 L 521.64 439.33 L 533.07 437.58 C558.74,433.64 584.97,425.29 606.50,414.20 C616.29,409.16 620.06,406.66 621.75,404.10 C626.23,397.33 623.73,388.38 615.98,383.49 C610.90,380.28 539.64,349.59 531.28,347.00 C521.69,344.04 509.25,343.38 499.83,345.33 C491.51,347.06 486.28,349.09 454.50,362.95 C418.14,378.80 412.57,381.30 410.00,382.85 C397.49,390.42 397.29,401.35 409.53,409.47 C422.62,418.17 447.09,427.33 477.59,434.95 C501.04,440.81 504.14,442.07 523.18,453.53 C539.20,463.16 552.87,469.99 560.94,472.39 C566.05,473.91 566.69,473.88 573.41,471.94 C606.04,462.49 633.71,448.62 649.61,433.75 L 656.00 427.77 L 656.00 432.28 C656.00,439.02 651.38,455.48 647.32,463.21 C639.01,479.03 616.50,492.67 585.50,500.67 ZM 573.25 545.51 C557.74,548.22 542.62,546.76 526.97,541.05 C517.10,537.45 511.81,534.54 493.73,522.80 C477.67,512.37 471.17,509.28 457.50,505.59 C421.41,495.83 404.64,489.02 389.94,478.14 C382.56,472.68 378.51,467.17 374.10,456.60 C371.12,449.42 367.00,429.67 368.24,428.43 C368.59,428.08 371.27,430.23 374.19,433.21 C389.67,449.01 420.48,463.35 462.62,474.39 C485.23,480.32 489.64,482.23 506.69,493.54 C522.57,504.07 530.91,508.53 541.50,512.12 C551.90,515.65 568.28,515.45 584.00,511.59 C603.58,506.79 620.29,499.94 632.33,491.77 C635.53,489.60 638.44,488.10 638.78,488.45 C639.64,489.31 632.73,503.09 627.40,511.13 C621.82,519.55 610.82,530.50 603.50,534.92 C596.12,539.38 583.91,543.66 573.25,545.51 ZM 459.20 405.87 C450.24,409.79 442.37,412.97 441.70,412.93 C441.04,412.89 436.00,410.95 430.50,408.61 C411.16,400.40 407.37,397.77 410.45,394.69 C411.94,393.20 469.66,367.05 485.00,360.92 C496.95,356.14 505.90,354.57 517.04,355.29 C528.28,356.02 534.43,358.15 568.00,372.97 C616.20,394.24 617.47,394.97 613.34,399.10 C611.48,400.97 589.22,411.40 584.68,412.54 C583.18,412.92 574.10,409.52 556.73,402.08 C528.28,389.89 522.35,388.00 512.50,388.00 C501.49,388.00 495.35,390.06 459.20,405.87 ZM 534.50 581.62 C525.87,583.50 506.56,584.22 498.52,582.95 C481.39,580.26 464.31,574.13 451.37,566.03 C444.06,561.45 433.62,553.05 434.34,552.33 C434.57,552.09 438.53,552.93 443.13,554.18 C450.22,556.11 453.87,556.46 467.00,556.42 C480.84,556.37 483.43,556.08 491.14,553.72 C495.89,552.26 502.27,549.97 505.33,548.62 L 510.87 546.17 L 518.19 549.00 C531.91,554.33 540.60,556.13 555.00,556.64 C566.86,557.05 569.78,556.81 579.00,554.66 C584.78,553.31 589.71,552.42 589.98,552.67 C590.65,553.30 583.61,559.25 576.50,564.05 C564.77,571.98 549.55,578.34 534.50,581.62 ZM 410.51 710.99 C404.18,714.06 393.92,714.57 387.17,712.16 C380.53,709.79 373.91,703.47 370.84,696.60 C367.57,689.26 367.56,674.66 370.83,667.50 C373.57,661.47 378.10,656.55 383.50,653.74 C389.22,650.76 402.40,650.12 408.68,652.51 C414.72,654.82 420.50,660.13 423.83,666.44 C426.21,670.95 426.50,672.59 426.50,681.50 C426.50,689.61 426.10,692.38 424.36,696.12 C421.49,702.34 415.82,708.42 410.51,710.99 ZM 460.98 712.01 C457.81,713.70 450.50,713.21 448.66,711.17 C446.10,708.35 429.83,655.66 430.76,653.21 C431.11,652.29 433.15,652.00 437.86,652.21 L 444.47 652.50 L 449.60 670.79 C452.43,680.85 455.01,689.35 455.35,689.68 C455.49,689.82 455.59,689.95 455.71,689.95 C456.13,689.96 456.61,688.19 459.22,678.56 L 459.51 677.50 C461.00,672.00 463.33,663.99 464.67,659.71 L 467.12 651.91 L 480.50 652.50 L 483.67 662.50 C485.41,668.00 488.03,676.48 489.48,681.35 C490.94,686.22 492.34,689.99 492.61,689.73 C492.87,689.46 495.12,681.44 497.61,671.89 C500.11,662.34 502.62,653.96 503.19,653.27 C504.68,651.47 514.43,651.61 515.96,653.45 C516.92,654.60 515.73,659.68 510.04,678.70 C501.22,708.17 500.28,710.78 497.98,712.01 C495.58,713.29 489.39,713.28 486.98,711.99 C485.18,711.02 480.98,699.56 476.47,683.25 C475.52,679.81 474.42,677.00 474.03,677.00 C473.64,677.00 471.64,682.51 469.58,689.25 C463.16,710.24 462.88,710.99 460.98,712.01 ZM 477.87 545.95 C456.71,549.38 432.12,543.35 415.29,530.60 C408.32,525.31 400.82,516.80 394.27,506.72 C390.54,500.98 385.00,490.07 385.00,488.47 C385.00,487.29 387.48,488.24 391.32,490.87 C404.19,499.72 425.36,507.85 455.50,515.51 C459.35,516.49 465.20,518.50 468.50,519.99 C476.75,523.70 498.23,537.82 497.76,539.22 C497.24,540.77 485.68,544.68 477.87,545.95 ZM 631.49 711.12 C625.15,713.94 613.43,714.60 606.91,712.51 C601.37,710.73 593.63,704.15 591.00,699.00 C585.21,687.64 587.21,668.98 595.24,659.48 C603.03,650.26 622.67,648.08 632.27,655.36 C638.42,660.03 642.21,667.65 642.78,676.49 L 642.81 677.01 C643.06,680.83 643.21,683.18 642.14,684.64 C640.41,687.00 635.46,687.00 622.51,687.00 L 621.43 687.00 C620.86,687.00 620.32,687.00 619.78,687.00 C608.14,687.00 603.88,687.00 603.14,688.61 C602.71,689.54 603.47,691.01 604.66,693.33 C604.75,693.52 604.85,693.71 604.95,693.90 C608.48,700.81 618.78,703.10 627.86,698.98 C633.66,696.34 637.48,696.43 639.44,699.22 C640.30,700.44 641.00,702.17 641.00,703.05 C641.00,705.36 637.22,708.57 631.49,711.12 ZM 296.43 711.43 C294.41,713.45 288.09,713.45 285.22,711.44 L 283.00 709.89 L 283.00 670.38 C283.00,645.06 283.37,630.17 284.04,628.93 C285.01,627.10 286.37,627.00 309.34,627.00 C326.87,627.00 333.93,627.33 334.80,628.20 C336.43,629.83 336.34,638.48 334.68,639.85 C333.86,640.53 326.71,641.06 315.93,641.23 L 298.50 641.50 L 298.22 652.25 L 297.93 663.00 L 312.03 663.00 C319.84,663.00 326.99,663.46 328.07,664.04 C329.53,664.82 330.00,666.14 330.00,669.46 C330.00,676.61 329.08,677.00 312.43,677.00 L 298.00 677.00 L 298.00 693.43 C298.00,707.03 297.73,710.13 296.43,711.43 ZM 537.43 711.43 C535.55,713.31 529.07,713.50 526.67,711.75 C525.12,710.61 524.99,707.88 525.23,681.50 L 525.50 652.50 L 531.72 652.20 C537.66,651.92 537.97,652.02 538.58,654.45 C539.25,657.15 540.44,657.72 541.56,655.90 C543.16,653.31 550.61,651.04 557.50,651.04 C566.38,651.03 571.40,653.61 575.00,660.03 C577.43,664.37 577.51,665.15 577.83,687.10 C578.12,707.06 577.97,709.89 576.51,711.35 C574.31,713.54 567.80,713.49 565.14,711.25 C563.18,709.60 563.04,708.36 562.78,689.16 L 562.50 668.82 L 559.69 666.41 C554.04,661.55 543.42,664.35 540.44,671.49 C539.37,674.04 539.00,679.46 539.00,692.40 C539.00,706.94 538.74,710.12 537.43,711.43 ZM 686.50 711.26 C681.94,713.62 669.92,714.52 663.73,712.97 C658.26,711.59 652.23,708.29 651.00,706.00 C649.76,703.68 650.63,701.61 654.26,698.22 L 656.70 695.94 L 661.68 698.52 C664.42,699.95 669.18,701.37 672.25,701.69 C677.31,702.21 678.07,702.02 680.41,699.68 C685.37,694.72 683.47,692.26 671.76,688.51 C657.07,683.80 652.01,678.86 652.00,669.20 C651.99,656.55 660.95,650.19 677.24,651.29 C685.78,651.86 693.51,654.87 694.51,658.02 C695.15,660.05 693.05,664.89 690.64,666.88 C689.44,667.88 688.37,667.72 685.08,666.04 C676.06,661.44 666.00,662.51 666.00,668.06 C666.00,671.75 668.52,673.46 678.50,676.53 C692.36,680.79 696.99,685.21 697.00,694.18 C697.00,702.46 693.97,707.40 686.50,711.26 ZM 739.75 711.42 C736.93,713.25 728.37,714.20 724.84,713.07 C719.92,711.50 716.20,708.70 714.14,705.04 C712.34,701.84 712.07,699.50 711.95,685.94 C711.76,664.83 711.86,665.17 706.14,664.80 L 701.50 664.50 L 701.50 652.50 L 711.50 651.50 L 712.50 635.50 L 719.21 635.21 L 725.92 634.91 L 726.21 643.21 L 726.50 651.50 L 740.50 652.50 L 740.50 664.50 L 726.00 665.09 L 726.00 696.85 L 728.75 699.02 C730.93,700.74 732.35,701.08 735.59,700.64 C740.61,699.96 742.00,701.16 742.00,706.18 C742.00,708.99 741.43,710.33 739.75,711.42 ZM 357.17 711.35 C354.78,713.51 348.78,713.46 346.09,711.25 C343.97,709.51 343.96,709.30 344.23,668.50 L 344.50 627.50 L 350.47 627.19 C355.24,626.95 356.70,627.24 357.72,628.63 C358.71,629.98 359.00,639.43 359.00,670.04 C359.00,707.18 358.88,709.79 357.17,711.35 ZM 390.95 698.75 C397.24,702.99 406.04,700.69 409.56,693.88 C411.77,689.62 412.50,680.52 411.06,675.21 C410.42,672.85 408.64,669.51 407.10,667.79 C404.66,665.06 403.50,664.59 398.17,664.21 C392.27,663.78 391.91,663.89 388.61,667.19 C384.45,671.35 382.58,677.57 383.32,684.79 C383.98,691.17 386.46,695.72 390.95,698.75 ZM 603.39 673.80 L 602.75 677.00 L 615.32 677.00 C622.23,677.00 628.12,676.62 628.40,676.16 C629.37,674.59 627.02,668.37 624.60,666.09 C621.46,663.14 615.45,662.37 610.79,664.31 C606.71,666.02 604.34,669.06 603.39,673.80 Z" fill="rgb(2,2,2)"/>
<path d="M 0.00 512.00 L 0.00 0.00 L 512.00 0.00 L 1024.00 0.00 L 1024.00 512.00 L 1024.00 1024.00 L 512.00 1024.00 L 0.00 1024.00 L 0.00 512.00 ZM 410.51 710.99 C415.82,708.42 421.49,702.34 424.36,696.12 C426.10,692.38 426.50,689.61 426.50,681.50 C426.50,672.59 426.21,670.95 423.83,666.44 C420.50,660.13 414.72,654.82 408.68,652.51 C402.40,650.12 389.22,650.76 383.50,653.74 C378.10,656.55 373.57,661.47 370.83,667.50 C367.56,674.66 367.57,689.26 370.84,696.60 C373.91,703.47 380.53,709.79 387.17,712.16 C393.92,714.57 404.18,714.06 410.51,710.99 ZM 631.49 711.12 C637.22,708.57 641.00,705.36 641.00,703.05 C641.00,702.17 640.30,700.44 639.44,699.22 C637.48,696.43 633.66,696.34 627.86,698.98 C618.78,703.10 608.48,700.81 604.95,693.90 C601.33,686.80 600.85,687.00 621.43,687.00 C643.83,687.00 643.47,687.18 642.78,676.49 C642.21,667.65 638.42,660.03 632.27,655.36 C622.67,648.08 603.03,650.26 595.24,659.48 C587.21,668.98 585.21,687.64 591.00,699.00 C593.63,704.15 601.37,710.73 606.91,712.51 C613.43,714.60 625.15,713.94 631.49,711.12 ZM 686.50 711.26 C693.97,707.40 697.00,702.46 697.00,694.18 C696.99,685.21 692.36,680.79 678.50,676.53 C668.52,673.46 666.00,671.75 666.00,668.06 C666.00,662.51 676.06,661.44 685.08,666.04 C688.37,667.72 689.44,667.88 690.64,666.88 C693.05,664.89 695.15,660.05 694.51,658.02 C693.51,654.87 685.78,651.86 677.24,651.29 C660.95,650.19 651.99,656.55 652.00,669.20 C652.01,678.86 657.07,683.80 671.76,688.51 C683.47,692.26 685.37,694.72 680.41,699.68 C678.07,702.02 677.31,702.21 672.25,701.69 C669.18,701.37 664.42,699.95 661.68,698.52 L 656.70 695.94 L 654.26 698.22 C650.63,701.61 649.76,703.68 651.00,706.00 C652.23,708.29 658.26,711.59 663.73,712.97 C669.92,714.52 681.94,713.62 686.50,711.26 ZM 739.75 711.42 C741.43,710.33 742.00,708.99 742.00,706.18 C742.00,701.16 740.61,699.96 735.59,700.64 C732.35,701.08 730.93,700.74 728.75,699.02 L 726.00 696.85 L 726.00 680.97 L 726.00 665.09 L 733.25 664.79 L 740.50 664.50 L 740.50 658.50 L 740.50 652.50 L 733.50 652.00 L 726.50 651.50 L 726.21 643.21 L 725.92 634.91 L 719.21 635.21 L 712.50 635.50 L 712.00 643.50 L 711.50 651.50 L 706.50 652.00 L 701.50 652.50 L 701.50 658.50 L 701.50 664.50 L 706.14 664.80 C711.86,665.17 711.76,664.83 711.95,685.94 C712.07,699.50 712.34,701.84 714.14,705.04 C716.20,708.70 719.92,711.50 724.84,713.07 C728.37,714.20 736.93,713.25 739.75,711.42 ZM 296.43 711.43 C297.73,710.13 298.00,707.03 298.00,693.43 L 298.00 677.00 L 312.43 677.00 C329.08,677.00 330.00,676.61 330.00,669.46 C330.00,666.14 329.53,664.82 328.07,664.04 C326.99,663.46 319.84,663.00 312.03,663.00 L 297.93 663.00 L 298.22 652.25 L 298.50 641.50 L 315.93 641.23 C326.71,641.06 333.86,640.53 334.68,639.85 C336.34,638.48 336.43,629.83 334.80,628.20 C333.93,627.33 326.87,627.00 309.34,627.00 C286.37,627.00 285.01,627.10 284.04,628.93 C283.37,630.17 283.00,645.06 283.00,670.38 L 283.00 709.89 L 285.22 711.44 C288.09,713.45 294.41,713.45 296.43,711.43 ZM 357.17 711.35 C358.88,709.79 359.00,707.18 359.00,670.04 C359.00,639.43 358.71,629.98 357.72,628.63 C356.70,627.24 355.24,626.95 350.47,627.19 L 344.50 627.50 L 344.23 668.50 C343.96,709.30 343.97,709.51 346.09,711.25 C348.78,713.46 354.78,713.51 357.17,711.35 ZM 460.98 712.01 C462.88,710.99 463.16,710.24 469.58,689.25 C471.64,682.51 473.64,677.00 474.03,677.00 C474.42,677.00 475.52,679.81 476.47,683.25 C480.98,699.56 485.18,711.02 486.98,711.99 C489.39,713.28 495.58,713.29 497.98,712.01 C500.28,710.78 501.22,708.17 510.04,678.70 C515.73,659.68 516.92,654.60 515.96,653.45 C514.43,651.61 504.68,651.47 503.19,653.27 C502.62,653.96 500.11,662.34 497.61,671.89 C495.12,681.44 492.87,689.46 492.61,689.73 C492.34,689.99 490.94,686.22 489.48,681.35 C488.03,676.48 485.41,668.00 483.67,662.50 L 480.50 652.50 L 473.81 652.21 L 467.12 651.91 L 464.67 659.71 C463.33,663.99 461.00,672.00 459.51,677.50 C455.92,690.73 456.04,690.37 455.35,689.68 C455.01,689.35 452.43,680.85 449.60,670.79 L 444.47 652.50 L 437.86 652.21 C433.15,652.00 431.11,652.29 430.76,653.21 C429.83,655.66 446.10,708.35 448.66,711.17 C450.50,713.21 457.81,713.70 460.98,712.01 ZM 537.43 711.43 C538.74,710.12 539.00,706.94 539.00,692.40 C539.00,679.46 539.37,674.04 540.44,671.49 C543.42,664.35 554.04,661.55 559.69,666.41 L 562.50 668.82 L 562.78 689.16 C563.04,708.36 563.18,709.60 565.14,711.25 C567.80,713.49 574.31,713.54 576.51,711.35 C577.97,709.89 578.12,707.06 577.83,687.10 C577.51,665.15 577.43,664.37 575.00,660.03 C571.40,653.61 566.38,651.03 557.50,651.04 C550.61,651.04 543.16,653.31 541.56,655.90 C540.44,657.72 539.25,657.15 538.58,654.45 C537.97,652.02 537.66,651.92 531.72,652.20 L 525.50 652.50 L 525.23 681.50 C524.99,707.88 525.12,710.61 526.67,711.75 C529.07,713.50 535.55,713.31 537.43,711.43 ZM 534.50 581.62 C549.55,578.34 564.77,571.98 576.50,564.05 C583.61,559.25 590.65,553.30 589.98,552.67 C589.71,552.42 584.78,553.31 579.00,554.66 C569.78,556.81 566.86,557.05 555.00,556.64 C540.60,556.13 531.91,554.33 518.19,549.00 L 510.87 546.17 L 505.33 548.62 C502.27,549.97 495.89,552.26 491.14,553.72 C483.43,556.08 480.84,556.37 467.00,556.42 C453.87,556.46 450.22,556.11 443.13,554.18 C438.53,552.93 434.57,552.09 434.34,552.33 C433.62,553.05 444.06,561.45 451.37,566.03 C464.31,574.13 481.39,580.26 498.52,582.95 C506.56,584.22 525.87,583.50 534.50,581.62 ZM 477.87 545.95 C485.68,544.68 497.24,540.77 497.76,539.22 C498.23,537.82 476.75,523.70 468.50,519.99 C465.20,518.50 459.35,516.49 455.50,515.51 C425.36,507.85 404.19,499.72 391.32,490.87 C387.48,488.24 385.00,487.29 385.00,488.47 C385.00,490.07 390.54,500.98 394.27,506.72 C400.82,516.80 408.32,525.31 415.29,530.60 C432.12,543.35 456.71,549.38 477.87,545.95 ZM 573.25 545.51 C583.91,543.66 596.12,539.38 603.50,534.92 C610.82,530.50 621.82,519.55 627.40,511.13 C632.73,503.09 639.64,489.31 638.78,488.45 C638.44,488.10 635.53,489.60 632.33,491.77 C620.29,499.94 603.58,506.79 584.00,511.59 C568.28,515.45 551.90,515.65 541.50,512.12 C530.91,508.53 522.57,504.07 506.69,493.54 C489.64,482.23 485.23,480.32 462.62,474.39 C420.48,463.35 389.67,449.01 374.19,433.21 C371.27,430.23 368.59,428.08 368.24,428.43 C367.00,429.67 371.12,449.42 374.10,456.60 C378.51,467.17 382.56,472.68 389.94,478.14 C404.64,489.02 421.41,495.83 457.50,505.59 C471.17,509.28 477.67,512.37 493.73,522.80 C511.81,534.54 517.10,537.45 526.97,541.05 C542.62,546.76 557.74,548.22 573.25,545.51 ZM 585.50 500.67 C616.50,492.67 639.01,479.03 647.32,463.21 C651.38,455.48 656.00,439.02 656.00,432.28 L 656.00 427.77 L 649.61 433.75 C633.71,448.62 606.04,462.49 573.41,471.94 C566.69,473.88 566.05,473.91 560.94,472.39 C552.87,469.99 539.20,463.16 523.18,453.53 C504.14,442.07 501.04,440.81 477.59,434.95 C447.09,427.33 422.62,418.17 409.53,409.47 C397.29,401.35 397.49,390.42 410.00,382.85 C412.57,381.30 418.14,378.80 454.50,362.95 C486.28,349.09 491.51,347.06 499.83,345.33 C509.25,343.38 521.69,344.04 531.28,347.00 C539.64,349.59 610.90,380.28 615.98,383.49 C623.73,388.38 626.23,397.33 621.75,404.10 C620.06,406.66 616.29,409.16 606.50,414.20 C584.97,425.29 558.74,433.64 533.07,437.58 L 521.64 439.33 L 524.86 442.02 C529.71,446.07 548.46,456.45 557.38,460.02 C566.67,463.73 566.69,463.73 586.00,457.39 C610.99,449.19 635.37,435.34 645.91,423.37 C661.31,405.87 661.96,384.17 647.59,367.38 C640.68,359.30 632.06,354.76 587.25,335.59 C563.47,325.41 540.78,316.13 536.84,314.95 C526.78,311.96 512.37,310.74 502.50,312.05 C487.75,314.01 482.66,315.93 422.20,342.26 C388.83,356.79 381.56,361.18 374.79,370.90 C368.57,379.83 366.74,386.00 367.21,396.50 C367.74,408.49 371.49,416.58 380.72,425.68 C389.25,434.09 396.75,439.07 411.41,446.05 C426.69,453.34 442.51,458.70 466.00,464.53 C487.36,469.84 493.83,472.73 513.39,485.68 C527.46,495.00 538.35,500.60 546.38,502.65 C554.54,504.73 573.45,503.78 585.50,500.67 ZM 459.20 405.87 C495.35,390.06 501.49,388.00 512.50,388.00 C522.35,388.00 528.28,389.89 556.73,402.08 C574.10,409.52 583.18,412.92 584.68,412.54 C589.22,411.40 611.48,400.97 613.34,399.10 C617.47,394.97 616.20,394.24 568.00,372.97 C534.43,358.15 528.28,356.02 517.04,355.29 C505.90,354.57 496.95,356.14 485.00,360.92 C469.66,367.05 411.94,393.20 410.45,394.69 C407.37,397.77 411.16,400.40 430.50,408.61 C436.00,410.95 441.04,412.89 441.70,412.93 C442.37,412.97 450.24,409.79 459.20,405.87 ZM 390.95 698.75 C386.46,695.72 383.98,691.17 383.32,684.79 C382.58,677.57 384.45,671.35 388.61,667.19 C391.91,663.89 392.27,663.78 398.17,664.21 C403.50,664.59 404.66,665.06 407.10,667.79 C408.64,669.51 410.42,672.85 411.06,675.21 C412.50,680.52 411.77,689.62 409.56,693.88 C406.04,700.69 397.24,702.99 390.95,698.75 ZM 603.39 673.80 C604.34,669.06 606.71,666.02 610.79,664.31 C615.45,662.37 621.46,663.14 624.60,666.09 C627.02,668.37 629.37,674.59 628.40,676.16 C628.12,676.62 622.23,677.00 615.32,677.00 L 602.75 677.00 L 603.39 673.80 Z" fill="rgb(234,230,220)"/>
</g>
</svg>