<?xml version="1.0" standalone="no"?>
<!DOCTYPE svg PUBLIC "-//W3C//DTD SVG 20010904//EN"
 "http://www.w3.org/TR/2001/REC-SVG-20010904/DTD/svg10.dtd">
<svg version="1.0" xmlns="http://www.w3.org/2000/svg"
 width="1080.000000pt" height="1080.000000pt" viewBox="0 0 1080.000000 1080.000000"
 preserveAspectRatio="xMidYMid meet">

<g transform="translate(0.000000,1080.000000) scale(0.100000,-0.100000)"
fill="#000000" stroke="none">
<path d="M5223 8555 c-170 -23 -367 -89 -668 -225 -22 -9 -126 -54 -231 -98
-105 -44 -219 -94 -255 -110 -35 -16 -172 -76 -304 -133 -271 -117 -376 -180
-476 -286 -158 -168 -224 -369 -185 -563 58 -284 276 -505 693 -701 242 -114
456 -189 740 -259 492 -121 506 -127 843 -350 221 -147 404 -244 515 -273 237
-62 493 -38 845 80 415 139 688 324 788 534 66 137 106 275 133 452 17 113 5
120 -69 40 -140 -151 -407 -317 -733 -454 -233 -98 -510 -187 -612 -196 -36
-4 -69 2 -125 22 -124 43 -365 166 -542 276 -266 164 -395 223 -586 269 -49
12 -145 35 -214 51 -69 17 -145 36 -170 44 -25 7 -72 21 -105 30 -176 50 -453
158 -605 237 -140 71 -201 115 -237 170 -24 36 -28 52 -28 112 0 65 3 75 34
119 55 76 125 113 593 313 191 81 417 180 528 231 260 119 423 163 601 163
186 0 352 -49 694 -205 28 -12 95 -42 150 -65 55 -23 123 -53 150 -65 28 -13
142 -62 255 -110 388 -165 447 -201 495 -296 46 -89 25 -183 -55 -252 -46 -39
-307 -176 -430 -225 -333 -133 -644 -217 -975 -263 -49 -7 -98 -16 -108 -21
-18 -9 -18 -10 0 -30 67 -75 593 -348 670 -348 15 0 216 54 282 76 217 72 438
169 636 279 214 119 413 315 485 478 71 160 70 358 -2 502 -99 197 -247 324
-508 438 -74 32 -155 67 -180 79 -25 11 -79 34 -120 50 -41 17 -97 40 -125 53
-27 12 -95 41 -150 65 -91 38 -300 128 -350 150 -331 147 -461 190 -648 215
-136 17 -206 18 -334 0z"/>
<path d="M5235 7868 c-113 -20 -273 -77 -447 -157 -37 -17 -94 -42 -127 -56
-33 -14 -84 -36 -113 -49 -29 -13 -161 -72 -293 -131 -320 -143 -445 -202
-467 -222 -24 -21 -23 -48 2 -71 37 -34 343 -174 451 -206 51 -15 52 -15 133
18 44 19 106 45 136 59 349 159 637 272 748 293 209 40 348 4 829 -212 28 -13
133 -58 233 -100 l180 -76 49 16 c63 20 287 121 379 170 53 29 74 45 79 64 11
47 -44 79 -452 258 -71 31 -152 67 -180 79 -27 13 -84 37 -125 55 -41 18 -100
44 -130 58 -272 124 -449 189 -574 211 -71 13 -241 12 -311 -1z"/>
<path d="M3120 6668 c0 -70 33 -229 70 -339 75 -224 161 -333 370 -468 172
-111 474 -229 809 -317 371 -97 421 -118 728 -316 215 -139 303 -192 363 -220
136 -64 245 -101 380 -130 129 -27 404 -30 535 -4 107 20 266 68 344 102 183
81 366 248 508 463 103 155 188 341 157 341 -4 0 -40 -22 -79 -49 -258 -179
-691 -330 -1058 -370 -215 -24 -470 37 -692 166 -78 45 -102 60 -331 215 -189
127 -289 168 -604 249 -368 94 -476 130 -761 250 -287 121 -474 236 -635 391
-50 49 -94 88 -97 88 -4 0 -7 -24 -7 -52z"/>
<path d="M3390 5767 c0 -18 57 -146 100 -226 78 -145 266 -362 401 -462 192
-142 465 -222 764 -223 178 0 271 15 413 66 86 31 105 49 81 73 -17 17 -142
98 -300 195 -148 91 -222 120 -449 180 -423 110 -715 225 -918 361 -76 51 -92
58 -92 36z"/>
<path d="M5310 4834 c-78 -36 -270 -99 -370 -120 -66 -15 -127 -19 -275 -19
-194 1 -240 7 -417 54 -116 31 -99 -2 58 -120 411 -307 970 -428 1471 -319
294 63 613 224 807 405 48 45 38 60 -28 40 -26 -8 -98 -25 -159 -37 -162 -32
-426 -32 -582 0 -106 23 -351 99 -407 128 -35 18 -34 18 -98 -12z"/>
<path d="M2026 3582 c-178 -2 -213 -5 -228 -19 -17 -15 -18 -52 -18 -653 0
-745 -12 -677 119 -673 68 2 78 5 99 28 22 26 22 31 22 276 l0 249 221 0 221
0 29 29 c25 25 29 37 29 85 0 44 -5 61 -24 83 l-24 28 -226 3 -226 3 0 170 0
169 273 0 c327 0 317 -4 317 109 0 108 0 108 -205 112 -93 2 -264 3 -379 1z"/>
<path d="M2761 3573 c-20 -18 -21 -28 -25 -368 -2 -192 -2 -480 1 -638 7 -348
2 -332 118 -332 126 1 115 -63 115 677 l0 629 -25 24 c-21 22 -33 25 -93 25
-52 0 -75 -5 -91 -17z"/>
<path d="M8588 3463 c-45 -7 -52 -26 -56 -154 l-4 -119 -69 0 c-59 0 -70 -3
-83 -22 -18 -25 -21 -113 -6 -152 8 -23 15 -26 54 -26 24 0 58 -3 75 -6 l31
-6 0 -247 c0 -272 9 -337 58 -401 34 -46 48 -57 102 -83 63 -30 229 -31 280
-1 38 22 55 67 46 122 -9 56 -19 62 -113 62 -76 0 -86 2 -108 25 l-25 24 0
251 0 250 98 0 c53 0 102 4 108 8 22 15 34 52 34 110 0 71 -18 93 -76 94 -22
0 -67 2 -101 5 l-63 5 0 118 c0 96 -3 120 -16 131 -16 13 -116 21 -166 12z"/>
<path d="M3503 3209 c-182 -30 -323 -158 -367 -333 -21 -84 -21 -239 0 -320
46 -180 167 -294 352 -331 78 -16 89 -16 176 0 104 18 173 52 237 116 100 100
144 216 143 384 0 157 -37 256 -133 353 -71 71 -135 106 -233 126 -84 17 -98
18 -175 5z m189 -234 c83 -55 112 -126 112 -270 0 -145 -39 -225 -129 -266
-117 -54 -256 10 -300 140 -20 58 -20 202 0 269 16 53 61 114 99 134 63 34
160 31 218 -7z"/>
<path d="M6050 3213 c-66 -12 -135 -38 -181 -68 -43 -30 -51 -32 -55 -17 -18
59 -28 67 -89 70 -90 5 -122 -4 -132 -36 -5 -15 -8 -216 -7 -456 3 -509 -6
-473 122 -469 117 4 112 -12 112 324 0 230 3 286 15 317 33 78 101 122 190
122 66 0 105 -18 137 -62 23 -32 23 -38 28 -344 6 -378 -2 -356 129 -352 80 3
86 5 99 28 10 20 12 99 9 365 -4 394 -6 403 -93 492 -72 72 -178 104 -284 86z"/>
<path d="M6970 3210 c-187 -33 -307 -137 -362 -313 -19 -60 -23 -94 -23 -202
0 -174 24 -243 119 -343 63 -68 155 -114 261 -132 167 -29 400 44 450 140 14
27 14 33 0 59 -19 37 -61 71 -89 71 -11 0 -50 -14 -86 -31 -53 -26 -81 -33
-151 -37 -97 -5 -143 6 -190 45 -39 33 -69 93 -69 138 l0 35 286 0 c167 0 293
4 304 10 61 33 49 241 -22 361 -33 56 -101 124 -153 154 -67 38 -196 59 -275
45z m157 -217 c52 -24 121 -149 96 -173 -4 -5 -95 -12 -200 -16 l-193 -7 0 34
c1 77 62 155 140 178 42 12 113 5 157 -16z"/>
<path d="M7870 3208 c-84 -11 -180 -58 -218 -106 -46 -57 -66 -130 -59 -210
13 -136 91 -207 299 -272 171 -54 214 -93 178 -161 -37 -68 -197 -65 -341 6
-31 15 -64 25 -72 22 -23 -9 -86 -99 -87 -123 0 -55 105 -115 242 -139 140
-25 244 -13 344 38 178 91 209 344 55 455 -49 35 -93 54 -216 91 -160 49 -200
85 -171 155 28 68 152 70 292 5 34 -16 66 -29 71 -29 29 0 83 87 83 134 0 81
-227 158 -400 134z"/>
<path d="M4120 3180 c-11 -11 -20 -25 -20 -31 0 -6 16 -63 36 -127 19 -64 48
-162 64 -217 16 -55 49 -161 73 -235 24 -74 52 -166 63 -204 12 -46 30 -81 50
-103 29 -31 36 -33 97 -33 119 0 131 14 186 210 32 115 110 362 116 368 3 4
45 -127 116 -358 42 -141 74 -206 102 -214 34 -9 133 -7 161 4 14 5 32 22 40
38 8 15 49 142 91 282 155 514 165 550 165 581 0 42 -32 59 -113 59 -82 0
-108 -20 -126 -96 -6 -27 -18 -74 -27 -104 -8 -30 -35 -134 -60 -230 -25 -96
-47 -177 -50 -179 -8 -9 -15 8 -50 130 -103 350 -134 444 -155 462 -16 13 -39
17 -94 17 -81 0 -104 -12 -123 -65 -17 -47 -66 -214 -114 -387 -26 -96 -48
-158 -55 -158 -7 0 -13 7 -13 15 0 36 -151 560 -166 577 -26 27 -166 26 -194
-2z"/>
</g>
</svg>
